<svg width="17" height="20" viewBox="0 0 17 20" fill="none" xmlns="http://www.w3.org/2000/svg">
<path d="M6.32555 17.7963H10.5797C10.5846 18.0838 10.5332 18.3695 10.4285 18.6367C10.3238 18.9038 10.1679 19.1471 9.96992 19.3522C9.77192 19.5573 9.53577 19.7203 9.27526 19.8315C9.01476 19.9427 8.7351 20 8.45262 20C8.17013 20 7.89047 19.9427 7.62997 19.8315C7.36946 19.7203 7.13331 19.5573 6.93531 19.3522C6.73731 19.1471 6.58141 18.9038 6.47672 18.6367C6.37203 18.3695 6.32064 18.0838 6.32555 17.7963ZM17 15.0837V16.1651H1.79326e-07L0 15.0837L0.946951 14.36C1.5953 13.8653 2.12556 12.9731 2.12556 12.3788L2.12632 6.42907C2.14227 4.71839 2.82088 3.08328 4.01459 1.87935C5.20829 0.675408 6.82055 0 8.50075 0C10.181 0 11.7932 0.675408 12.9869 1.87935C14.1806 3.08328 14.8592 4.71839 14.8752 6.42907L14.8752 12.3796C14.8752 12.9738 15.4055 13.866 16.0538 14.3608L17 15.0837Z" fill="#333333"/>
</svg>
