<svg width="20" height="19" viewBox="0 0 20 19" fill="none" xmlns="http://www.w3.org/2000/svg">
<path d="M19.8733 2.3612C19.7364 2.25309 19.5379 2.27576 19.4289 2.41193L18.6608 3.3641C17.8316 2.32636 16.8113 1.45692 15.6551 0.802734L15.4202 1.39939L12.0877 9.90875L11.856 10.4959H11.8559C12.1407 10.6056 12.4105 10.7506 12.659 10.9275L10.7895 13.2667L10.4721 13.6666L10.1547 13.2667L8.28525 10.918C8.53378 10.741 8.80356 10.5959 9.08838 10.4864L8.85983 9.90875L5.52395 1.41209L5.28902 0.81543H5.28916C4.13295 1.46962 3.11262 2.33905 2.28345 3.3768L1.51532 2.42462C1.46615 2.35066 1.38823 2.30064 1.30037 2.28675C1.21267 2.27301 1.12312 2.29653 1.05355 2.35179C0.983973 2.40719 0.940757 2.48909 0.93438 2.57765C0.928146 2.66635 0.959177 2.75349 1.02025 2.8181L2.01054 4.05905V4.05919C2.01919 4.0752 2.02981 4.09008 2.04228 4.10354C2.04781 4.11346 2.05546 4.1221 2.06439 4.12905L7.57431 11.0384V11.0574L10.0372 14.155L7.70126 17.0878H7.68539V17.0879C7.68426 17.0953 7.68426 17.1028 7.68539 17.1102L7.03164 17.929H7.0315C6.92353 18.0659 6.9462 18.2643 7.08236 18.3734C7.13776 18.4352 7.21527 18.4727 7.29816 18.4781C7.3948 18.4777 7.4859 18.4333 7.5457 18.3575L8.03129 17.7481C8.66281 18.1736 9.39509 18.4252 10.1547 18.4781H10.4721H10.7895C11.5478 18.4291 12.2801 18.1817 12.9129 17.7608L13.3985 18.3703V18.3701C13.4608 18.4413 13.5515 18.4808 13.646 18.4781C13.7176 18.4777 13.787 18.453 13.8428 18.4082C13.979 18.2993 14.0017 18.1008 13.8935 17.9639L13.2398 17.1451C13.2408 17.1377 13.2408 17.1302 13.2398 17.1228L10.9039 14.1901L13.3287 11.0765C13.335 11.0688 13.3404 11.0603 13.3445 11.0511L18.8958 4.09718L19.9178 2.81173H19.9177C19.9724 2.74627 19.9985 2.66182 19.9901 2.57694C19.9817 2.49221 19.9397 2.41442 19.8733 2.361L19.8733 2.3612Z" fill="black"/>
</svg>
