<svg width="41" height="41" viewBox="0 0 41 41" fill="none" xmlns="http://www.w3.org/2000/svg">
<rect x="0.109375" y="0.953125" width="40" height="40" rx="20" fill="black" fill-opacity="0.08"/>
<g opacity="0.86">
<path fill-rule="evenodd" clip-rule="evenodd" d="M32.1093 22.0613C32.1093 24.3341 30.631 26.241 28.6094 26.8836V28.9531C31.7545 28.2611 34.1093 25.4383 34.1093 22.0613C34.1093 18.1654 30.9753 15.0071 27.1093 15.0071C26.911 15.0071 26.7146 15.0154 26.5204 15.0317C25.0859 10.9092 21.1902 7.95312 16.6094 7.95312C10.8104 7.95312 6.10938 12.6905 6.10938 18.5343C6.10938 22.9509 8.79449 26.7355 12.6094 28.3207V26.1073C9.93551 24.6651 8.10938 21.8211 8.10938 18.5343C8.10938 13.7805 11.9295 9.95312 16.6094 9.95312C20.2328 9.95312 23.3408 12.2475 24.5594 15.4898L24.5677 15.4865C24.7988 16.1123 24.9608 16.7725 25.0443 17.4575C25.6748 17.1681 26.3744 17.0071 27.1093 17.0071C29.8562 17.0071 32.1093 19.2554 32.1093 22.0613ZM27.1094 22.9531H17.1094V24.9531H27.1094V22.9531ZM25.1094 26.9531H15.1094V28.9531H25.1094V26.9531ZM17.1094 30.9531H27.1094V32.9531H17.1094V30.9531Z" fill="white"/>
</g>
</svg>
