<svg width="21" height="16" viewBox="0 0 21 16" fill="none" xmlns="http://www.w3.org/2000/svg">
<path d="M0.981993 0.000196166C0.905478 0.000196166 0.851656 0.0618382 0.844295 0.137894C0.844295 0.137894 0.839542 0.186503 0.837395 0.206743C0.804888 0.553442 0.547279 3.31584 0.500204 4.66609C0.500204 4.68464 0.499744 4.70304 0.500204 4.72113C0.521059 5.74007 1.13256 5.96531 2.04845 6.00104C2.03818 6.59292 1.99724 7.27407 1.81446 7.40487V7.43247C1.69363 7.51926 1.61174 7.65772 1.61497 7.81781L1.79391 15.5251C1.80005 15.7896 1.87396 16 2.13801 16H2.61966C2.88417 16 2.95072 15.7898 2.95685 15.5251L3.1427 7.81781C3.14531 7.65757 3.0645 7.51926 2.94321 7.43247V7.40487C2.76058 7.27422 2.71933 6.59308 2.70921 6.00104C3.62479 5.96531 4.22971 5.74006 4.25075 4.72113C4.25121 4.70304 4.25765 4.68464 4.25765 4.66609C4.21073 3.31608 3.95297 0.553363 3.92046 0.206743C3.91846 0.186656 3.91356 0.137894 3.91356 0.137894C3.90589 0.0619913 3.85238 0.000196166 3.77586 0.000196166H3.63816C3.56487 0.000196166 3.50522 0.0590784 3.50046 0.130993C3.5 0.132987 3.50046 0.135747 3.50046 0.137893V4.65887C3.50046 4.69245 3.49249 4.7245 3.47286 4.74826C3.47026 4.75194 3.46903 4.7521 3.46596 4.75516C3.44741 4.77372 3.4172 4.79135 3.39021 4.79641C3.38822 4.79687 3.38592 4.79595 3.38331 4.79641C3.37657 4.79748 3.36997 4.79641 3.36261 4.79641H3.16986C3.09396 4.79641 3.03217 4.73523 3.03217 4.65871C3.03171 3.15062 3.03217 0.137739 3.03217 0.137739C3.03217 0.0638306 2.97435 0.00418301 2.90137 4.16292e-05H2.77057C2.69773 0.00418183 2.63977 0.0638306 2.63977 0.137739C2.63977 0.137739 2.64069 3.15133 2.63977 4.65871C2.63977 4.72542 2.5927 4.78399 2.52968 4.79641C2.52094 4.79841 2.51204 4.79641 2.50208 4.79641H2.25428C2.25167 4.79641 2.24999 4.79687 2.24738 4.79641C2.24477 4.79641 2.24309 4.79687 2.24048 4.79641H2.23358C2.23159 4.79595 2.22883 4.79687 2.22668 4.79641C2.22208 4.79595 2.21763 4.79058 2.21288 4.78951H2.19908C2.19494 4.78798 2.18896 4.78476 2.18528 4.78261C2.18114 4.78062 2.18206 4.77832 2.17838 4.77571C2.1747 4.77372 2.16826 4.77142 2.16458 4.76881C2.13406 4.74351 2.11643 4.70165 2.11643 4.65871C2.11597 3.15109 2.11643 0.137739 2.11643 0.137739C2.11643 0.06383 2.05862 0.00418211 1.98563 4.07307e-05H1.85483C1.782 0.00418093 1.72404 0.06383 1.72404 0.137739C1.72404 0.137739 1.7245 3.1507 1.72404 4.65871C1.72404 4.69689 1.70748 4.73707 1.68279 4.76191C1.65795 4.78675 1.62467 4.79626 1.58649 4.79626H1.387C1.38439 4.79626 1.38225 4.79672 1.3801 4.79626C1.37749 4.79626 1.3758 4.79672 1.3732 4.79626H1.3663C1.36369 4.7958 1.36154 4.79672 1.3594 4.79626C1.35464 4.7958 1.3502 4.79043 1.3456 4.78936H1.3387C1.33456 4.78782 1.32904 4.7846 1.3249 4.78246C1.31708 4.77832 1.31094 4.77433 1.3042 4.76866C1.30052 4.76605 1.29346 4.75792 1.2904 4.75486C1.27491 4.73937 1.26279 4.72097 1.25605 4.69981C1.25405 4.69306 1.25712 4.68586 1.25605 4.67911C1.25605 4.6765 1.24976 4.67482 1.24915 4.67221V4.65841V0.130368C1.24516 0.0590657 1.18566 0.000183588 1.11283 0.000183588L0.981993 0.000196166ZM7.74638 0.000196166C6.75029 0.578301 6.01964 3.38683 6.01917 6.66134C6.02024 7.05343 6.0319 7.43831 6.05352 7.82427C6.28337 8.03189 6.43196 8.45478 6.43196 8.91158C6.43196 9.112 6.40313 9.30598 6.34931 9.48278H7.74623V0L7.74638 0.000196166ZM10.2788 0.000196166C9.84714 0.771357 9.59752 3.33395 9.59752 4.28054C9.59752 7.07085 11.7354 9.35108 14.4628 9.59289V15.3045H14.2633C13.9707 15.3045 10.7538 15.6035 10.7538 15.965C10.7538 15.9776 10.7532 15.987 10.7538 15.9994H19.1284C19.129 15.987 19.1284 15.9776 19.1284 15.965C19.1284 15.6148 15.9221 15.3221 15.6395 15.3045C15.6305 15.3038 15.628 15.3045 15.6188 15.3045H15.4193V9.59289C18.1466 9.35107 20.2845 7.07061 20.2845 4.28054C20.2845 3.33399 20.0349 0.771357 19.6033 0.000196166H10.2788ZM19.2728 0.481853C19.5144 1.28567 19.6378 2.1229 19.7132 2.95918H11.0772V2.99368C11.0039 3.88092 11.0543 4.78959 11.2561 5.67051C11.5029 6.93648 12.2705 8.1244 13.4168 8.88418C12.5099 8.57934 11.6968 8.01155 11.1115 7.25326C10.3845 6.35668 10.0602 5.18457 10.0931 4.03959C10.1972 2.85029 10.2324 1.63586 10.6092 0.495627C13.3745 0.489494 16.1359 0.503908 18.9014 0.488727C19.0246 0.4875 19.1496 0.483054 19.2729 0.481827L19.2728 0.481853ZM6.18412 9.65491C6.1076 9.65491 6.03967 9.71119 6.03967 9.77881V9.95086C6.19516 10.079 6.30112 10.3155 6.30112 10.5909C6.30112 10.8017 6.13152 11.6948 6.14287 12.5247C6.15575 13.4274 6.34236 14.55 6.34236 14.7887C6.34236 15.0046 6.28011 15.1965 6.17722 15.3323C6.01192 15.4185 5.92314 15.5446 5.92268 15.6695C5.92314 15.7552 5.96347 15.8311 6.04657 15.9035C6.06099 15.9578 6.11864 15.9998 6.18427 15.9998H7.65695C7.73347 15.9998 7.79465 15.9431 7.79465 15.8759V9.77886C7.79465 9.71124 7.73347 9.65497 7.65695 9.65497H6.18427L6.18412 9.65491Z" fill="black"/>
</svg>
