<svg width="25" height="24" viewBox="0 0 25 24" fill="none" xmlns="http://www.w3.org/2000/svg">
<rect width="24" height="24" transform="translate(0.5)" fill="white"/>
<path d="M19.7055 8.57352C19.359 5.5931 16.5172 3.30581 13.0169 3.09787V2.78597C13.0169 2.50872 12.809 2.30078 12.5317 2.30078C12.2545 2.30078 12.0465 2.50872 12.0465 2.78597V3.09787C8.58092 3.30581 5.73913 5.5931 5.35787 8.57352L5.25391 9.3013H12.0118V12.4897H12.9475V9.3013H19.7054L19.7055 8.57352Z" fill="black"/>
<path d="M4.59493 14.7763C4.42165 13.598 4.17906 12.4197 3.86716 11.276C3.79784 11.0681 3.58991 10.9641 3.41663 10.9988C3.20869 11.0681 3.10472 11.276 3.13938 11.4493C3.45128 12.5583 3.69388 13.7366 3.86716 14.8802C3.97112 15.504 4.04044 16.1625 4.10975 16.7862V16.8209V16.9249C4.24837 18.3111 4.28303 19.6973 4.21372 21.0836C4.21372 21.2915 4.35234 21.4648 4.59493 21.4648C4.80287 21.4648 4.97615 21.2915 4.97615 21.0836C5.01081 20.1132 5.01081 18.7617 4.94149 17.7913H8.51103V21.0836C8.51103 21.2915 8.68431 21.4648 8.89224 21.4648C9.10018 21.4648 9.27346 21.3262 9.27346 21.1182V16.4743H4.80279C4.73348 15.8852 4.66417 15.3306 4.59485 14.7761L4.59493 14.7763Z" fill="black"/>
<path d="M21.7475 10.9985C21.5396 10.9292 21.3317 11.0678 21.297 11.2757C20.9851 12.4194 20.7425 13.5977 20.5692 14.776C20.4653 15.3305 20.3959 15.885 20.3613 16.4742H15.8906V21.1181C15.8906 21.3261 16.0639 21.4994 16.2718 21.4994C16.4798 21.4994 16.6531 21.3261 16.6531 21.1181V17.8259H20.2226C20.1879 18.7962 20.1533 20.1478 20.1879 21.1181C20.1879 21.3261 20.3612 21.4994 20.5691 21.4994C20.7771 21.4994 20.9504 21.3261 20.9504 21.1181C20.9157 19.7319 20.9504 18.3457 21.0543 16.9594V16.8554V16.8208C21.1236 16.1623 21.193 15.5385 21.2969 14.9147C21.4702 13.7711 21.7128 12.6275 22.0247 11.4838C22.0594 11.2759 21.9554 11.068 21.7475 10.9987L21.7475 10.9985Z" fill="black"/>
<path d="M7.19531 12.8027H17.9383V13.981H7.19531V12.8027Z" fill="black"/>
<path d="M13.0175 16.5446L14.0225 14.5C14.0572 14.4653 14.0572 14.396 14.0572 14.3613H13.2254L12.567 15.7129L11.8392 14.3613H10.9728C10.9728 14.3613 10.9728 14.396 11.0074 14.396L12.1857 16.5447L10.1064 20.842C10.0024 21.0499 10.0717 21.2925 10.2796 21.3965C10.3143 21.4312 10.3836 21.4312 10.4183 21.4312C10.5569 21.4312 10.6955 21.3618 10.7995 21.2232L12.6709 17.3764L14.5769 20.9807C14.6463 21.1193 14.8195 21.1886 14.9582 21.1886C14.9928 21.1886 15.0621 21.1539 15.0968 21.1539C15.2701 21.05 15.3394 20.8074 15.2354 20.5995L13.0175 16.5446Z" fill="black"/>
</svg>
