<svg width="20" height="20" viewBox="0 0 20 20" fill="none" xmlns="http://www.w3.org/2000/svg">
<path d="M9.99914 6.8382C8.27882 6.8382 6.87492 8.2421 6.87492 9.96241C6.87492 11.6827 8.27882 13.0866 9.99914 13.0866C11.7194 13.0866 13.1234 11.6827 13.1234 9.96241C13.1234 8.2421 11.7194 6.8382 9.99914 6.8382ZM19.3694 9.96241C19.3694 8.66866 19.3812 7.38663 19.3085 6.09523C19.2359 4.59523 18.8937 3.26398 17.7968 2.1671C16.6976 1.06788 15.3687 0.728041 13.8687 0.655385C12.5749 0.582728 11.2929 0.594447 10.0015 0.594447C8.70773 0.594447 7.4257 0.582728 6.13429 0.655385C4.63429 0.728041 3.30304 1.07023 2.20617 2.1671C1.10695 3.26632 0.767103 4.59523 0.694447 6.09523C0.621791 7.38898 0.63351 8.67101 0.63351 9.96241C0.63351 11.2538 0.621791 12.5382 0.694447 13.8296C0.767103 15.3296 1.10929 16.6608 2.20617 17.7577C3.30538 18.8569 4.63429 19.1968 6.13429 19.2694C7.42804 19.3421 8.71007 19.3304 10.0015 19.3304C11.2952 19.3304 12.5773 19.3421 13.8687 19.2694C15.3687 19.1968 16.6999 18.8546 17.7968 17.7577C18.896 16.6585 19.2359 15.3296 19.3085 13.8296C19.3835 12.5382 19.3694 11.2562 19.3694 9.96241ZM9.99914 14.7694C7.33898 14.7694 5.1921 12.6226 5.1921 9.96241C5.1921 7.30226 7.33898 5.15538 9.99914 5.15538C12.6593 5.15538 14.8062 7.30226 14.8062 9.96241C14.8062 12.6226 12.6593 14.7694 9.99914 14.7694ZM15.003 6.08116C14.3819 6.08116 13.8804 5.5796 13.8804 4.95851C13.8804 4.33741 14.3819 3.83585 15.003 3.83585C15.6241 3.83585 16.1257 4.33741 16.1257 4.95851C16.1259 5.10599 16.097 5.25206 16.0406 5.38835C15.9843 5.52464 15.9016 5.64847 15.7973 5.75276C15.693 5.85704 15.5692 5.93973 15.4329 5.99608C15.2966 6.05244 15.1505 6.08135 15.003 6.08116Z" fill="black"/>
</svg>
