<svg width="16" height="14" viewBox="0 0 16 14" fill="none" xmlns="http://www.w3.org/2000/svg">
<path d="M0.5 4.5475V10.75C0.5 11.413 0.763392 12.0489 1.23223 12.5178C1.70107 12.9866 2.33696 13.25 3 13.25H13C13.663 13.25 14.2989 12.9866 14.7678 12.5178C15.2366 12.0489 15.5 11.413 15.5 10.75V3.25C15.5 2.58696 15.2366 1.95107 14.7678 1.48223C14.2989 1.01339 13.663 0.75 13 0.75H3C2.33696 0.75 1.70107 1.01339 1.23223 1.48223C0.763392 1.95107 0.5 2.58696 0.5 3.25V4.5475ZM3 2H13C13.3315 2 13.6495 2.1317 13.8839 2.36612C14.1183 2.60054 14.25 2.91848 14.25 3.25V4.175L8 7.54L1.75 4.175V3.25C1.75 2.91848 1.8817 2.60054 2.11612 2.36612C2.35054 2.1317 2.66848 2 3 2ZM1.75 5.595L7.70375 8.8C7.7948 8.84901 7.89659 8.87467 8 8.87467C8.10341 8.87467 8.2052 8.84901 8.29625 8.8L14.25 5.595V10.75C14.25 11.0815 14.1183 11.3995 13.8839 11.6339C13.6495 11.8683 13.3315 12 13 12H3C2.66848 12 2.35054 11.8683 2.11612 11.6339C1.8817 11.3995 1.75 11.0815 1.75 10.75V5.595Z" fill="#CAA123"/>
</svg>
