<svg width="22" height="18" viewBox="0 0 22 18" fill="none" xmlns="http://www.w3.org/2000/svg">
<path d="M14.6869 11.78V10.3289C15.2941 10.237 15.7617 9.70519 15.7617 9.06502C15.7617 8.3592 15.1934 5.20106 14.4953 5.20106C14.3687 5.20106 13.8264 5.27657 13.4498 7.31524C13.19 8.72032 13.229 8.93699 13.229 9.06502C13.229 9.70519 13.6965 10.237 14.3037 10.3289V11.6946C13.729 11.6651 12.9952 11.6027 11.3814 11.6388V8.22132C11.7386 8.15238 12.1574 8.07031 12.3912 7.83722C12.625 7.60742 12.8328 7.3612 12.9692 6.85564C13.1056 6.35007 13.1088 5.96597 13.0536 5.54905C12.9984 5.13212 12.0016 0.427734 10.982 0.427734C9.82281 0.427734 8.88442 4.96797 8.88442 6.13997C8.88442 6.25815 8.92013 6.68493 9.08249 7.05261C9.27406 7.48924 9.64423 7.76828 9.74813 7.85035C9.98192 8.02435 10.2547 8.15238 10.5469 8.21476V11.6651C8.96235 11.7373 7.67976 11.9277 6.96216 11.9901L6.95567 11.5206C7.92654 11.3335 8.65712 10.4734 8.65712 9.43927C8.65712 9.20947 8.62141 8.84835 8.55322 8.4183C8.5175 8.25415 8.47529 8.04733 8.42658 7.79783C8.36814 7.4958 8.32592 7.24302 8.32592 7.2463C7.95251 5.61142 7.29986 3.76644 6.55953 3.76644C5.40033 3.76644 4.46194 8.26728 4.46194 9.43927C4.46194 10.4603 5.17629 11.3105 6.12443 11.5141L6.14391 12.1148C3.87097 12.4891 0.714844 13.8876 0.714844 14.4129C0.714844 14.7904 2.52994 14.5639 6.22833 14.5901C9.45914 14.6164 11.5437 14.948 11.5665 15.3649C11.5925 15.7818 9.54032 15.9985 8.25124 16.2349C6.96216 16.4712 5.03666 16.9308 4.96523 17.3018C4.92302 17.525 6.6472 17.5218 7.28038 17.525C9.49811 17.5382 11.2905 17.6826 13.6348 17.3773C15.8234 17.095 17.3625 16.3793 17.3073 15.5323C17.2521 14.6853 15.2973 14.6065 15.2681 13.9894C15.2389 13.3755 21.1972 13.9926 21.2849 13.3065C21.3758 12.627 16.9436 11.9146 14.6869 11.78Z" fill="white" fill-opacity="0.96"/>
</svg>
