<svg width="21" height="18" viewBox="0 0 21 18" fill="none" xmlns="http://www.w3.org/2000/svg">
<path d="M14.1869 11.78V10.3289C14.7941 10.237 15.2617 9.70519 15.2617 9.06502C15.2617 8.3592 14.6934 5.20106 13.9953 5.20106C13.8687 5.20106 13.3264 5.27657 12.9498 7.31524C12.69 8.72032 12.729 8.93699 12.729 9.06502C12.729 9.70519 13.1965 10.237 13.8037 10.3289V11.6946C13.229 11.6651 12.4952 11.6027 10.8814 11.6388V8.22132C11.2386 8.15238 11.6574 8.07031 11.8912 7.83722C12.125 7.60742 12.3328 7.3612 12.4692 6.85564C12.6056 6.35007 12.6088 5.96597 12.5536 5.54905C12.4984 5.13212 11.5016 0.427734 10.482 0.427734C9.32281 0.427734 8.38442 4.96797 8.38442 6.13997C8.38442 6.25815 8.42013 6.68493 8.58249 7.05261C8.77406 7.48924 9.14423 7.76828 9.24813 7.85035C9.48192 8.02435 9.75467 8.15238 10.0469 8.21476V11.6651C8.46235 11.7373 7.17976 11.9277 6.46216 11.9901L6.45567 11.5206C7.42654 11.3335 8.15712 10.4734 8.15712 9.43927C8.15712 9.20947 8.12141 8.84835 8.05322 8.4183C8.0175 8.25415 7.97529 8.04733 7.92658 7.79783C7.86814 7.4958 7.82592 7.24302 7.82592 7.2463C7.45251 5.61142 6.79986 3.76644 6.05953 3.76644C4.90033 3.76644 3.96194 8.26728 3.96194 9.43927C3.96194 10.4603 4.67629 11.3105 5.62443 11.5141L5.64391 12.1148C3.37097 12.4891 0.214844 13.8876 0.214844 14.4129C0.214844 14.7904 2.02994 14.5639 5.72833 14.5901C8.95914 14.6164 11.0437 14.948 11.0665 15.3649C11.0925 15.7818 9.04032 15.9985 7.75124 16.2349C6.46216 16.4712 4.53666 16.9308 4.46523 17.3018C4.42302 17.525 6.1472 17.5218 6.78038 17.525C8.99811 17.5382 10.7905 17.6826 13.1348 17.3773C15.3234 17.095 16.8625 16.3793 16.8073 15.5323C16.7521 14.6853 14.7973 14.6065 14.7681 13.9894C14.7389 13.3755 20.6972 13.9926 20.7849 13.3065C20.8758 12.627 16.4436 11.9146 14.1869 11.78Z" fill="black"/>
</svg>
