<svg width="29" height="29" viewBox="0 0 29 29" fill="none" xmlns="http://www.w3.org/2000/svg">
<path fill-rule="evenodd" clip-rule="evenodd" d="M13.1094 3.95312V0.953125H15.1094V3.95312H13.1094ZM18.7434 4.92693L20.2434 2.32886L21.9755 3.32886L20.4755 5.92693L18.7434 4.92693ZM14.1094 21.9531C17.9754 21.9531 21.1094 18.8191 21.1094 14.9531C21.1094 11.0871 17.9754 7.95312 14.1094 7.95312C10.2434 7.95312 7.10938 11.0871 7.10938 14.9531C7.10938 18.8191 10.2434 21.9531 14.1094 21.9531ZM14.1094 23.9531C19.0799 23.9531 23.1094 19.9237 23.1094 14.9531C23.1094 9.98256 19.0799 5.95312 14.1094 5.95312C9.13881 5.95312 5.10938 9.98256 5.10938 14.9531C5.10938 19.9237 9.13881 23.9531 14.1094 23.9531ZM25.1094 13.9531H28.1094V15.9531H25.1094V13.9531ZM25.7337 7.0871L23.1356 8.5871L24.1356 10.3191L26.7337 8.81915L25.7337 7.0871ZM6.24335 3.32886L7.74335 5.92693L9.4754 4.92693L7.9754 2.32886L6.24335 3.32886ZM4.08312 10.3191L1.48505 8.81915L2.48505 7.0871L5.08312 8.5871L4.08312 10.3191ZM13.1094 25.9531V28.9531H15.1094V25.9531H13.1094ZM3.10938 13.9531H0.109375V15.9531H3.10938V13.9531ZM1.48499 21.0871L4.08307 19.5871L5.08307 21.3192L2.48499 22.8192L1.48499 21.0871ZM7.74341 23.9795L6.24341 26.5776L7.97546 27.5776L9.47546 24.9795L7.74341 23.9795ZM20.2433 27.5776L18.7433 24.9795L20.4754 23.9795L21.9754 26.5776L20.2433 27.5776ZM23.1357 21.3192L25.7338 22.8192L26.7338 21.0871L24.1357 19.5871L23.1357 21.3192Z" fill="#F2C94C"/>
</svg>
