<svg width="22" height="16" viewBox="0 0 22 16" fill="none" xmlns="http://www.w3.org/2000/svg">
<path d="M21.0617 2.90273C20.9422 2.45751 20.7078 2.05149 20.382 1.72532C20.0563 1.39914 19.6505 1.16425 19.2055 1.04414C17.5672 0.603516 11 0.603516 11 0.603516C11 0.603516 4.43281 0.603516 2.79453 1.0418C2.34927 1.16151 1.94334 1.39628 1.61751 1.72251C1.29169 2.04875 1.05744 2.45498 0.938281 2.90039C0.5 4.54102 0.5 7.96289 0.5 7.96289C0.5 7.96289 0.5 11.3848 0.938281 13.023C1.17969 13.9277 1.89219 14.6402 2.79453 14.8816C4.43281 15.3223 11 15.3223 11 15.3223C11 15.3223 17.5672 15.3223 19.2055 14.8816C20.1102 14.6402 20.8203 13.9277 21.0617 13.023C21.5 11.3848 21.5 7.96289 21.5 7.96289C21.5 7.96289 21.5 4.54102 21.0617 2.90273ZM8.91406 11.1035V4.82227L14.3516 7.93945L8.91406 11.1035Z" fill="black"/>
</svg>
